<svg width="860" height="738" viewBox="0 0 860 738" fill="none" xmlns="http://www.w3.org/2000/svg">
<g opacity="0.57">
<g style="mix-blend-mode:color-dodge">
<path d="M-559.656 283.792C-422.883 239.282 -251.333 240.985 -164.161 302.557C-127.605 328.389 -107.774 362.269 -93.7384 396.8C-58.265 484.078 -55.9871 579.562 -3.85097 662.117C16.0209 693.543 54.3719 726.22 113.118 720.717C165.779 715.785 205.257 682.584 230.572 651.993C265.943 609.258 290.702 564.326 308.298 519.247C328.278 468.071 339.674 415.544 378.789 366.786C417.905 318.028 494.243 272.388 577.361 268.844C658.07 265.405 716.745 300.751 779.712 325.236C798.63 332.586 820.254 339.248 844.618 336.966C881.949 333.466 910.598 311.082 933.708 290.951" stroke="white" stroke-width="0.75" stroke-miterlimit="10"/>
<path d="M-561.267 287.055C-425.465 243.394 -255.992 245.048 -168.359 305.11C-131.628 330.289 -111.114 363.352 -96.2545 397.118C-76.6949 441.721 -66.049 488.642 -52.9378 534.959C-40.9714 577.291 -26.9485 619.094 -1.91017 658.043C18.0441 689.09 55.938 721.082 113.634 716.609C154.464 713.45 187.765 693.922 213.114 671.406C220.195 665.102 226.747 658.614 232.74 651.974C247.486 635.675 260.608 618.973 272.021 601.976C284.936 582.523 295.992 562.798 305.125 542.913C308.708 535.269 312.061 527.6 315.184 519.905C336.307 468.29 348.748 415.308 388.568 366.099C427.264 318.068 502.053 273.116 583.516 268.916C662.665 264.824 720.583 298.331 782.742 321.445C801.428 328.384 822.76 334.68 846.743 332.334C883.476 328.74 911.849 306.931 934.876 287.34" stroke="white" stroke-width="0.73" stroke-miterlimit="10"/>
<path d="M-562.874 290.285C-428.042 247.527 -260.592 249.11 -172.567 307.626C-135.647 332.155 -114.463 364.397 -98.87 397.414C-78.2824 440.998 -66.4624 487.026 -52.4986 532.601C-39.763 574.24 -25.2371 615.483 -0.0674166 653.954C20.0047 684.623 57.4459 715.95 114.032 712.497C154.634 710.023 188.088 692.005 214.288 670.57C221.628 664.551 228.469 658.335 234.778 651.952C250.521 636.093 264.493 619.728 276.576 602.991C290.411 583.797 301.824 563.794 311.592 543.712C315.34 535.997 318.869 528.268 322.179 520.525C344.436 468.486 358.103 415.064 398.454 365.367C436.8 318.161 509.857 273.819 589.671 268.99C667.22 264.225 724.422 295.863 785.857 317.614C804.324 324.145 825.348 330.063 848.952 327.654C885.087 323.974 913.151 302.745 936.129 283.687" stroke="white" stroke-width="0.72" stroke-miterlimit="10"/>
<path d="M-564.479 293.576C-430.612 251.694 -265.193 253.165 -176.774 310.141C-139.681 334.058 -117.811 365.441 -101.443 397.687C-79.8026 440.311 -66.8173 485.407 -52.0266 530.229C-38.5204 571.183 -23.5142 611.87 1.81101 649.865C21.9882 680.152 58.9909 710.824 114.463 708.378C154.865 706.604 188.5 690.113 215.508 669.726C223.129 663.989 230.278 658.041 236.918 651.912C253.644 636.509 268.452 620.481 281.188 603.996C295.896 584.909 307.829 564.74 318.048 544.514C321.974 536.747 325.679 528.956 329.161 521.14C352.566 468.682 367.257 414.814 408.317 364.639C446.265 318.204 517.706 274.513 595.86 269.001C671.832 263.615 728.295 293.388 788.985 313.786C807.232 319.903 827.949 325.444 851.209 322.972C886.745 319.198 914.565 298.53 937.429 280.025" stroke="white" stroke-width="0.7" stroke-miterlimit="10"/>
<path d="M-566.079 296.832C-433.18 255.811 -269.849 257.236 -180.967 312.66C-143.687 335.921 -121.146 366.489 -103.996 397.992C-81.3377 439.605 -67.173 483.78 -51.5296 527.86C-37.277 568.125 -21.7579 608.244 3.70015 645.767C23.9952 675.676 60.5639 705.714 114.975 704.245C155.195 703.203 188.91 688.157 216.793 668.904C224.664 663.452 232.093 657.778 239.043 651.909C256.725 636.973 272.338 621.276 285.676 605.023C301.212 586.051 313.665 565.724 324.392 545.335C328.501 537.507 332.374 529.657 336.009 521.785C360.561 468.902 376.412 414.564 418.057 363.932C455.607 318.269 525.432 275.229 601.919 269.064C676.309 263.029 732.046 290.943 791.976 309.976C810.002 315.679 830.414 320.849 853.248 318.322C888.209 314.457 915.739 294.346 938.591 276.381" stroke="white" stroke-width="0.68" stroke-miterlimit="10"/>
<path d="M-567.69 300.096C-435.754 259.964 -274.459 261.313 -185.186 315.177C-147.722 337.768 -124.507 367.535 -106.577 398.288C-82.8858 438.901 -67.5529 482.157 -51.0653 525.51C-36.0307 565.088 -19.9972 604.644 5.59509 641.703C25.9967 671.235 62.1925 700.65 115.379 700.166C155.439 699.796 189.264 686.275 217.968 668.075C226.087 662.909 233.793 657.508 241.047 651.9C259.751 637.46 276.246 622.099 290.26 606.068C306.658 587.204 319.688 566.709 330.832 546.174C335.117 538.286 339.165 530.374 342.975 522.438C368.663 469.137 385.631 414.344 427.904 363.241C465.056 318.343 533.254 275.963 608.099 269.147C680.893 262.453 735.899 288.486 795.075 306.182C812.871 311.479 832.989 316.277 855.443 313.686C889.805 309.727 917.062 290.204 939.828 272.765" stroke="white" stroke-width="0.67" stroke-miterlimit="10"/>
<path d="M-569.304 303.341C-438.356 264.087 -279.085 265.358 -189.392 317.691C-151.752 339.635 -127.855 368.579 -109.101 398.566C-84.387 438.189 -67.8745 480.524 -50.5402 523.108C-34.735 562 -18.2098 600.998 7.52365 637.569C28.0684 666.678 63.7896 695.542 115.861 696.003C155.724 696.354 189.709 684.314 219.238 667.186C227.62 662.306 235.614 657.178 243.18 651.826C262.873 637.898 280.218 622.868 294.866 607.039C312.112 588.278 325.676 567.631 337.282 546.942C341.742 538.989 345.965 531.017 349.952 523.025C376.787 469.299 394.833 414.043 437.761 362.479C474.502 318.347 541.097 276.623 614.287 269.151C685.487 261.811 739.77 285.998 798.184 302.316C815.783 307.202 835.639 311.613 857.641 308.951C891.403 304.892 918.387 285.957 941.082 269.055" stroke="white" stroke-width="0.65" stroke-miterlimit="10"/>
<path d="M-570.901 306.616C-440.909 268.222 -283.703 269.443 -193.598 320.211C-155.78 341.508 -131.197 369.649 -111.726 398.869C-85.9636 437.512 -68.2875 478.907 -50.1006 520.748C-33.5331 558.97 -16.5108 597.381 9.36685 633.479C29.9801 662.253 65.3413 690.498 116.27 691.887C155.976 692.973 190.08 682.393 220.469 666.339C229.11 661.77 237.377 656.927 245.225 651.837C265.92 638.449 284.128 623.746 299.394 608.093C317.486 589.416 331.597 568.627 343.655 547.792C348.3 539.787 352.697 531.762 356.845 523.718C384.828 469.572 403.978 413.857 447.548 361.826C483.867 318.464 548.869 277.393 620.393 269.267C690.011 261.279 743.566 283.599 801.222 298.56C818.578 303.036 838.095 307.083 859.779 304.373C892.956 300.233 919.651 281.861 942.275 265.496" stroke="white" stroke-width="0.63" stroke-miterlimit="10"/>
<path d="M-572.513 309.874C-443.484 272.369 -288.333 273.482 -197.805 322.726C-159.811 343.376 -134.562 370.675 -114.308 399.159C-87.5174 436.782 -68.6657 477.292 -49.6405 518.379C-32.294 555.899 -14.7771 593.766 11.2788 629.384C32.0168 657.758 66.9873 685.459 116.744 687.746C156.304 689.572 190.516 680.454 221.663 665.486C230.592 661.197 239.165 656.611 247.331 651.753C268.995 638.917 288.066 624.541 303.973 609.055C322.921 590.515 337.557 569.539 350.089 548.549C354.902 540.485 359.469 532.392 363.789 524.269C392.918 469.698 413.148 413.521 457.372 361.028C493.249 318.452 556.65 278.044 626.506 269.257C694.529 260.623 747.357 281.077 804.255 294.68C821.381 298.75 840.602 302.418 861.897 299.654C894.486 295.417 920.903 277.613 943.456 261.786" stroke="white" stroke-width="0.62" stroke-miterlimit="10"/>
<path d="M-574.112 313.136C-446.05 276.499 -292.955 277.547 -202 325.239C-163.829 345.241 -137.897 371.724 -116.865 399.45C-88.9962 436.066 -69.0233 475.659 -49.144 516.01C-31.0396 552.84 -13.0197 590.146 13.1335 625.292C33.981 653.304 68.5721 680.459 117.167 683.643C156.59 686.242 190.901 678.546 222.875 664.657C232.071 660.674 240.935 656.37 249.414 651.772C272.026 639.504 291.966 625.453 308.527 610.119C328.326 591.69 343.539 570.546 356.488 549.409C361.477 541.286 366.215 533.131 370.703 524.945C400.98 469.956 422.301 413.32 467.189 360.357C502.641 318.53 564.461 278.78 632.685 269.333C699.127 260.05 751.217 278.647 807.414 290.881C824.319 294.538 843.177 297.845 864.148 295C896.139 290.677 922.281 273.448 944.752 258.159" stroke="white" stroke-width="0.6" stroke-miterlimit="10"/>
<path d="M-575.724 316.394C-448.626 280.639 -297.566 281.61 -206.206 327.76C-167.857 347.115 -141.241 372.788 -119.389 399.729C-90.5433 435.362 -69.344 474.032 -48.615 513.627C-29.7513 549.774 -11.2328 586.5 15.0901 621.181C36.0442 648.817 70.2461 675.435 117.678 679.509C156.965 682.832 191.421 676.606 224.163 663.8C233.628 660.107 242.78 656.063 251.558 651.696C275.108 640.021 295.931 626.3 313.159 611.106C333.808 592.787 349.518 571.483 362.964 550.193C368.137 542.012 373.051 533.798 377.706 525.549C409.12 470.142 431.519 413.037 477.118 359.602C512.135 318.539 572.376 279.448 638.935 269.354C703.782 259.418 755.151 276.126 810.538 287.033C827.224 290.282 845.828 293.182 866.367 290.311C897.771 285.892 923.626 269.239 946.025 254.488" stroke="white" stroke-width="0.58" stroke-miterlimit="10"/>
<path d="M-577.301 319.652C-451.179 284.774 -302.18 285.667 -210.39 330.271C-171.824 349.005 -144.595 373.812 -122.002 400.037C-92.125 434.665 -69.7447 472.421 -48.1873 511.27C-28.5416 546.729 -9.5285 582.911 16.9129 617.109C37.972 644.362 71.8009 670.517 118.066 675.405C157.224 679.541 191.748 674.708 225.327 662.972C235.049 659.585 244.48 655.814 253.551 651.689C278.013 640.613 299.716 627.208 317.609 612.126C339.131 593.914 355.362 572.452 369.264 550.98C374.614 542.745 379.703 534.47 384.533 526.156C417.131 470.338 440.604 412.8 486.818 358.882C521.399 318.576 580.051 280.153 644.966 269.401C708.219 258.819 758.865 273.68 813.478 283.212C829.955 286.045 848.258 288.593 868.413 285.639C899.219 281.133 924.797 265.048 947.127 250.841" stroke="white" stroke-width="0.57" stroke-miterlimit="10"/>
<path d="M-578.945 322.924C-453.778 288.918 -306.836 289.739 -214.62 332.79C-175.905 350.854 -147.941 374.863 -124.573 400.318C-93.6621 433.953 -70.1166 470.777 -47.6582 508.889C-27.2547 543.657 -7.73855 579.279 18.8342 612.999C40.0156 639.894 73.4429 665.563 118.553 671.27C157.568 676.208 192.211 672.778 226.593 662.12C263.653 650.64 296.674 633.724 322.242 613.12C344.616 595.019 361.389 573.395 375.759 551.796C381.277 543.502 386.535 535.166 391.531 526.79C425.25 470.536 449.771 412.499 496.671 358.155C530.804 318.61 587.889 280.849 651.139 269.443C712.806 258.2 762.727 271.208 816.583 279.382C832.829 281.809 850.836 283.979 870.601 280.969C900.82 276.368 926.122 260.857 948.387 247.215" stroke="white" stroke-width="0.55" stroke-miterlimit="10"/>
<path d="M-580.591 326.187C-456.353 293.057 -311.425 293.797 -218.825 335.311C-179.942 352.687 -151.301 375.908 -127.141 400.611C-95.2007 433.233 -70.4811 469.165 -47.2653 506.531C-26.0458 540.605 -6.03799 575.669 20.6859 608.893C41.9694 635.392 75.0083 660.635 118.965 667.168C157.851 672.919 192.61 670.881 227.796 661.306C238.045 658.52 248.065 655.291 257.769 651.647C283.987 641.817 307.486 629.055 326.781 614.165C349.994 596.176 367.308 574.384 382.142 552.638C387.841 544.268 393.273 535.868 398.438 527.438C433.246 470.762 458.881 412.264 506.413 357.462C540.087 318.678 595.617 281.579 657.155 269.527C717.23 257.644 766.423 268.786 819.515 275.575C835.54 277.589 853.244 279.394 872.628 276.314C902.292 271.605 927.274 256.683 949.45 243.553" stroke="white" stroke-width="0.53" stroke-miterlimit="10"/>
<path d="M-582.144 329.448C-458.918 297.195 -316.083 297.863 -223.032 337.826C-183.941 354.591 -154.65 376.953 -129.711 400.898C-96.7338 432.542 -70.8475 467.548 -46.7352 504.156C-24.8033 537.548 -4.28257 572.043 22.5444 604.822C43.9444 630.936 76.5894 655.783 119.394 663.036C158.121 669.627 193.003 668.957 228.987 660.439C239.499 657.96 249.813 655.002 259.835 651.593C286.894 642.407 311.307 629.971 331.344 615.165C355.417 597.278 373.265 575.332 388.55 553.434C394.428 545.023 400.052 536.562 405.42 528.053C441.411 470.959 468.065 411.988 516.322 356.726C549.537 318.703 603.501 282.267 663.452 269.547C721.933 257.018 770.399 266.293 822.737 271.745C838.543 273.351 855.939 274.779 874.945 271.642C903.979 266.859 928.717 252.492 950.822 239.899" stroke="white" stroke-width="0.52" stroke-miterlimit="10"/>
<path d="M-583.757 332.699C-461.497 301.321 -320.706 301.928 -227.239 340.34C-187.982 356.46 -157.997 378.003 -132.291 401.193C-98.2811 431.838 -71.2152 465.922 -46.2631 501.783C-23.5606 534.49 -2.53686 568.425 24.4585 600.733C45.965 626.471 78.1975 650.89 119.851 658.926C158.434 666.368 193.448 667.051 230.233 659.603C241.004 657.438 251.615 654.756 261.958 651.582C289.822 643.045 315.139 630.929 335.914 616.191C360.838 598.415 379.217 576.309 394.975 554.255C400.991 545.79 406.769 537.28 412.309 528.726C449.446 471.206 477.154 411.763 526.115 356.051C558.857 318.779 611.267 283.01 669.552 269.637C726.452 256.466 774.156 263.937 825.769 267.962C841.382 269.17 858.445 270.211 877.068 266.997C905.515 262.125 929.967 248.335 952 236.279" stroke="white" stroke-width="0.5" stroke-miterlimit="10"/>
<path d="M-585.357 335.962C-464.07 305.474 -325.285 305.979 -231.445 342.862C-192.013 358.328 -161.346 379.048 -134.869 401.447C-99.8265 431.093 -71.5911 464.265 -45.7878 499.377C-22.3131 531.404 -0.765152 564.768 26.2806 596.605C47.9035 621.959 79.6967 645.99 120.249 654.764C158.668 663.075 193.826 665.116 231.408 658.719C242.426 656.861 253.324 654.446 263.981 651.501C292.627 643.62 318.862 631.83 340.409 617.155C366.184 599.489 385.105 577.214 401.317 555.021C407.547 546.494 413.499 537.916 419.172 529.285C457.457 471.347 486.196 411.436 535.86 355.268C568.13 318.753 618.998 283.65 675.629 269.627C730.933 255.797 777.911 261.408 828.765 264.075C844.112 264.877 860.961 265.531 879.138 262.28C906.987 257.314 931.173 244.09 953.136 232.578" stroke="white" stroke-width="0.48" stroke-miterlimit="10"/>
<path d="M-586.969 339.219C-466.646 309.614 -329.957 310.032 -235.651 345.376C-196.041 360.201 -164.694 380.091 -137.429 401.774C-101.354 430.42 -71.9508 462.674 -45.2949 497.043C-21.0624 528.38 0.987096 561.177 28.2337 592.53C49.935 617.541 81.3117 641.179 120.756 650.666C158.993 659.863 194.34 663.205 232.692 657.897C243.959 656.351 255.149 654.208 266.129 651.493C295.53 644.279 322.686 632.817 345.018 618.194C371.655 600.637 391.107 578.203 407.78 555.849C414.186 547.262 420.314 538.623 426.162 529.933C465.594 471.568 495.377 411.202 545.741 354.563C577.54 318.805 626.854 284.37 681.807 269.695C735.517 255.219 781.769 258.971 831.866 260.28C846.993 260.675 863.49 260.959 881.346 257.641C908.573 252.586 932.504 239.925 954.395 228.944" stroke="white" stroke-width="0.47" stroke-miterlimit="10"/>
<path d="M-588.575 342.505C-469.222 313.754 -334.576 314.118 -239.858 347.891C-200.059 362.067 -168.041 381.142 -139.999 402.061C-102.89 429.715 -72.3132 461.021 -44.8229 494.671C-19.8085 525.32 2.69863 557.566 30.122 588.433C51.958 613.035 82.8504 636.349 121.211 646.544C159.232 656.647 194.738 661.302 233.925 657.058C245.436 655.817 256.917 653.944 268.223 651.461C298.358 644.914 326.445 633.78 349.596 619.206C377.083 601.759 397.079 579.162 414.202 556.657C420.782 548.001 427.081 539.301 433.099 530.556C473.714 471.773 504.481 410.941 555.559 353.843C586.851 318.842 634.659 285.079 687.979 269.738C740.158 254.632 785.642 256.496 835.004 256.444C849.912 256.431 866.108 256.365 883.578 252.956C910.241 247.808 933.865 235.735 955.673 225.293" stroke="white" stroke-width="0.45" stroke-miterlimit="10"/>
<path d="M-590.18 345.74C-471.804 317.866 -339.205 318.156 -244.058 350.439C-204.081 363.974 -171.39 382.186 -142.561 402.388C-104.419 429.043 -72.668 459.456 -44.331 492.337C-18.5588 522.296 4.45139 553.981 32.0076 584.377C53.96 608.594 84.3667 631.577 121.661 642.456C159.493 653.474 195.165 659.427 235.163 656.244C246.916 655.314 258.689 653.711 270.323 651.455C301.164 645.575 330.18 634.774 354.168 620.245C382.506 602.908 403.032 580.146 420.63 557.49C427.384 548.803 433.855 540.043 440.043 531.212C481.757 472.005 513.584 410.672 565.389 353.176C596.224 318.894 642.475 285.835 694.14 269.837C744.663 254.069 789.482 254.083 838.053 252.686C852.74 252.259 868.636 251.794 885.711 248.359C911.787 243.115 935.167 231.604 956.872 221.712" stroke="white" stroke-width="0.43" stroke-miterlimit="10"/>
<path d="M-591.79 349.004C-474.368 322.003 -343.823 322.241 -248.271 352.926C-208.118 365.807 -174.737 383.236 -145.14 402.627C-105.978 428.285 -73.0441 457.791 -43.8574 489.916C-17.3713 519.199 6.18578 550.31 33.8861 580.231C55.9549 604.064 85.8562 626.734 122.105 638.285C159.661 650.249 195.577 657.478 236.373 655.352C248.366 654.728 260.43 653.402 272.4 651.391C302.145 646.297 332.682 636.577 358.726 621.217C387.919 604.011 408.961 581.071 427.034 558.266C433.968 549.499 440.614 540.677 446.973 531.801C489.822 472.17 522.664 410.351 575.193 352.388C605.551 318.892 650.253 286.472 700.263 269.818C749.202 253.395 793.295 251.549 841.107 248.788C855.576 247.953 871.165 247.117 887.859 243.612C913.346 238.266 936.408 227.351 958.076 217.99" stroke="white" stroke-width="0.42" stroke-miterlimit="10"/>
<path d="M-593.391 352.26C-476.945 326.136 -348.445 326.306 -252.476 355.448C-212.138 367.666 -178.085 384.28 -147.706 402.935C-107.511 427.593 -73.4088 456.18 -43.3824 487.558C-16.0718 516.132 7.93449 546.706 35.779 576.154C57.9528 599.603 87.3289 621.978 122.563 634.176C159.831 647.093 196.011 655.581 237.608 654.519C249.838 654.217 262.195 653.17 274.501 651.393C305.035 646.881 336.491 637.525 363.3 622.264C393.339 605.148 414.946 582.091 433.452 559.109C440.563 550.287 447.38 541.403 453.905 532.459C497.902 472.409 531.75 410.114 585.03 351.699C614.891 318.951 658.065 287.208 706.422 269.905C753.765 252.829 797.142 249.115 844.185 244.997C858.434 243.756 873.717 242.542 890.031 238.98C914.922 233.554 937.705 223.193 959.303 214.376" stroke="white" stroke-width="0.4" stroke-miterlimit="10"/>
<path d="M-594.995 355.557C-479.514 330.308 -353.074 330.4 -256.676 357.995C-216.158 369.579 -181.427 385.357 -150.269 403.254C-109.04 426.921 -73.7696 454.588 -42.8905 485.224C-14.8192 513.12 9.68716 543.121 37.6743 572.089C59.9474 595.129 88.8166 617.183 123.011 630.081C159.984 643.968 196.426 653.702 238.844 653.699C251.308 653.702 263.957 652.92 276.597 651.367C307.933 647.443 340.295 638.453 367.857 623.285C398.756 606.271 420.89 583.034 439.864 559.925C447.157 551.036 454.151 542.093 460.845 533.095C505.988 472.619 540.828 409.842 594.85 350.984C624.213 318.984 665.87 287.916 712.572 269.957C758.277 252.243 800.971 246.654 847.261 241.206C861.277 239.546 876.266 237.959 892.201 234.334C916.494 228.821 939.001 219.035 960.515 210.75" stroke="white" stroke-width="0.38" stroke-miterlimit="10"/>
<path d="M-596.614 358.782C-482.09 334.448 -357.704 334.432 -260.889 360.484C-220.194 371.42 -184.78 386.381 -152.855 403.524C-110.582 426.189 -74.1434 452.937 -42.4132 482.823C-13.5826 510.036 11.4367 539.468 39.5567 567.964C61.955 590.66 90.1952 612.43 123.461 625.938C160.103 640.794 196.841 651.774 240.058 652.828C252.759 653.14 265.703 652.631 278.685 651.308C310.821 647.965 344.101 639.339 372.428 624.269C404.145 607.372 426.854 583.96 446.292 560.703C453.777 551.761 460.944 542.765 467.793 533.716C514.078 472.85 549.903 409.558 604.69 350.26C633.557 319.008 673.686 288.616 718.733 270.002C762.9 251.632 804.833 244.182 850.35 237.358C864.146 235.29 878.828 233.326 894.373 229.646C918.09 224.036 940.31 214.826 961.753 207.079" stroke="white" stroke-width="0.37" stroke-miterlimit="10"/>
<path d="M-598.214 362.044C-484.609 338.577 -362.329 338.491 -265.096 362.998C-224.213 373.285 -188.131 387.412 -155.423 403.817C-112.129 425.485 -74.5099 451.319 -41.9384 480.465C-12.3287 506.977 13.1466 535.85 41.4448 563.866C63.9482 586.179 91.5951 607.666 123.902 621.81C160.177 637.684 197.263 649.873 241.289 651.981C254.217 652.604 267.449 652.368 280.768 651.277C313.693 648.518 347.893 640.262 376.983 625.284C409.584 608.491 432.791 584.925 452.737 561.506C460.375 552.508 467.712 543.444 474.747 534.314C522.185 472.994 558.965 409.213 614.525 349.508C642.894 319.004 681.506 289.287 724.898 270.017C767.472 251.001 808.665 241.631 853.436 233.503C867.059 231.019 881.39 228.693 896.554 224.943C919.672 219.239 941.615 210.597 962.988 203.393" stroke="white" stroke-width="0.35" stroke-miterlimit="10"/>
<path d="M-599.826 365.301C-487.23 342.724 -366.952 342.555 -269.303 365.512C-228.231 375.15 -191.49 388.464 -157.995 404.096C-113.668 424.765 -74.8791 449.687 -41.4353 478.073C-11.0634 503.914 14.9491 532.221 43.3475 559.779C65.9688 581.714 92.9997 602.922 124.384 617.702C160.254 634.586 197.676 648.042 242.549 651.157C255.68 652.096 269.182 652.135 282.821 651.273C316.58 649.088 351.653 641.205 381.501 626.291C414.953 609.609 438.76 585.871 459.054 562.318C466.876 553.259 474.388 544.132 481.59 534.939C530.164 473.202 567.916 408.95 624.25 348.79C652.12 319.026 689.217 289.992 730.965 270.064C771.957 250.399 812.416 239.136 856.424 229.679C869.789 226.774 883.863 224.082 898.648 220.275C921.169 214.484 942.836 206.417 964.138 199.751" stroke="white" stroke-width="0.33" stroke-miterlimit="10"/>
<path d="M-601.425 368.565C-489.806 346.865 -371.574 346.622 -273.51 368.028C-232.271 377.027 -194.818 389.547 -160.565 404.384C-114.909 424.319 -74.7126 448.291 -40.9745 475.704C-9.832 500.86 16.6593 528.604 45.2118 555.679C67.9381 577.232 94.3189 598.167 124.8 613.566C160.256 631.47 198.045 646.117 243.742 650.297C257.122 651.547 270.939 651.855 284.946 651.215C319.471 649.618 355.497 642.099 386.116 627.31C420.419 610.739 444.699 586.844 465.513 563.134C473.52 554.022 481.208 544.836 488.577 535.575C538.287 473.421 576.992 408.667 634.116 348.076C661.476 319.055 697.104 290.694 737.14 270.12C776.538 249.81 816.276 236.707 859.519 225.866C872.664 222.546 886.455 219.48 900.839 215.62C922.772 209.734 944.151 202.236 965.37 196.109" stroke="white" stroke-width="0.32" stroke-miterlimit="10"/>
<path d="M-603.036 371.822C-492.381 351.004 -376.198 350.679 -277.719 370.528C-236.742 378.908 -198.304 390.369 -163.166 404.683C-116.491 423.543 -75.2497 446.634 -40.5343 473.344C-8.62261 497.807 18.3831 524.99 47.0668 551.586C69.911 572.761 95.6175 593.42 125.221 609.448C160.206 628.381 198.453 644.203 244.962 649.452C258.574 651.013 272.687 651.6 287.045 651.202C322.358 650.181 359.302 643.026 390.653 628.342C425.806 611.88 450.629 587.824 471.905 563.96C480.072 554.786 487.928 545.539 495.472 536.218C546.342 473.643 585.976 408.391 643.904 347.374C670.765 319.094 704.843 291.421 743.261 270.192C781.063 249.228 820.075 234.266 862.581 222.056C875.49 218.304 888.968 214.889 902.984 210.964C924.328 204.975 945.434 198.065 966.582 192.476" stroke="white" stroke-width="0.3" stroke-miterlimit="10"/>
<path d="M-604.636 375.084C-494.959 355.136 -380.821 354.745 -281.922 373.062C-240.614 380.779 -201.636 391.478 -165.703 404.964C-118.028 422.753 -75.7409 444.961 -40.0286 470.966C-7.35767 494.746 20.1511 521.368 48.9775 547.484C71.9282 568.283 96.9605 588.667 125.697 605.321C160.178 625.289 198.887 642.306 246.159 648.611C259.992 650.476 274.393 651.332 289.091 651.165C325.192 650.727 363.073 643.967 395.193 629.345C431.208 612.993 456.567 588.796 478.301 564.758C486.66 555.526 494.691 546.219 502.395 536.836C554.445 473.829 595.006 408.066 653.765 346.632C680.082 319.101 712.657 292.115 749.429 270.22C784.152 249.424 823.437 231.843 865.614 218.224C878.309 214.092 891.476 210.28 905.112 206.291C925.86 200.222 946.688 193.873 967.765 188.821" stroke="white" stroke-width="0.28" stroke-miterlimit="10"/>
<path d="M-606.248 378.342C-497.535 359.276 -385.444 358.81 -286.129 375.577C-244.486 382.638 -204.974 392.588 -168.271 405.257C-119.605 421.973 -76.264 443.297 -39.5326 468.597C-6.1379 491.692 21.9064 517.741 50.8785 543.391C73.9343 563.807 98.2227 583.921 126.117 601.204C160.083 622.217 199.279 640.375 247.39 647.765C261.464 649.939 276.172 651.07 291.233 651.137C328.135 651.281 366.905 644.862 399.808 630.363C436.673 614.121 462.57 589.736 484.783 565.568C493.311 556.282 501.514 546.916 509.393 537.468C562.544 474.044 603.875 407.7 663.608 345.92C689.351 319.11 720.453 292.832 755.65 270.268C790.275 248.003 827.832 229.314 868.802 214.4C881.275 209.847 894.136 205.664 907.392 201.611C927.543 195.456 948.094 189.675 969.101 185.166" stroke="white" stroke-width="0.27" stroke-miterlimit="10"/>
<path d="M-607.858 381.607C-394.769 345.615 -172.751 378.667 -39.049 466.224C22.387 506.464 65.4301 556.677 126.572 597.082C160.011 619.142 199.733 638.462 248.656 646.913C297.578 655.364 356.937 651.637 404.372 631.364C442.088 615.232 468.516 590.687 491.18 566.367C558.392 494.214 603.973 416.715 673.401 345.192C742.829 273.669 844.648 205.356 970.237 181.514" stroke="white" stroke-width="0.25" stroke-miterlimit="10"/>
</g>
</g>
</svg>
