<svg width="860" height="398" viewBox="0 0 860 398" fill="none" xmlns="http://www.w3.org/2000/svg">
<g filter="url(#filter0_d_544_10961)">
<g style="mix-blend-mode:color-dodge">
<path d="M1499.81 -213.43C1371.1 -279.294 1200.08 -297.488 1103.06 -238.758C1062.38 -214.116 1037 -178.503 1017.28 -141.482C967.433 -47.9103 949.26 58.7384 883.619 145.07C858.606 177.93 814.994 210.026 757.444 196.981C705.855 185.288 672.095 143.486 651.995 106.266C623.912 54.2699 606.755 1.05758 596.752 -51.4811C585.393 -111.125 582.801 -171.276 551.994 -230.455C521.186 -289.634 452.813 -349.683 370.68 -363.39C290.928 -376.698 226.643 -343.994 159.897 -323.956C139.844 -317.942 117.213 -313.016 93.3452 -318.426C56.7741 -326.72 31.9903 -355.141 12.3438 -380.389" stroke="white" stroke-width="0.75" stroke-miterlimit="10"/>
<path d="M1500.87 -209.587C1372.98 -274.387 1204.04 -292.392 1106.82 -235.406C1066.07 -211.517 1040.14 -176.899 1019.73 -140.831C992.831 -93.1791 974.42 -41.8881 953.655 8.43857C934.694 54.4368 913.774 99.602 882.366 140.281C857.335 172.707 814.291 204.089 757.614 192.321C717.504 183.999 687.615 158.232 666.137 130.049C660.14 122.161 654.699 114.129 649.841 105.991C637.881 86.0135 627.603 65.7741 619.076 45.4041C609.462 22.1093 601.745 -1.27308 595.968 -24.6094C593.676 -33.5879 591.616 -42.5681 589.79 -51.5501C577.365 -111.82 573.81 -172.604 542.376 -232.369C511.865 -290.686 444.919 -349.783 364.543 -364.03C286.452 -377.886 223.227 -347.154 157.513 -328.555C137.76 -322.975 115.481 -318.425 92.0016 -323.862C56.0423 -332.189 31.437 -359.935 11.7828 -384.569" stroke="white" stroke-width="0.73" stroke-miterlimit="10"/>
<path d="M1501.93 -205.782C1374.86 -269.457 1207.94 -287.305 1110.58 -232.097C1069.75 -208.957 1043.3 -175.337 1022.28 -140.193C994.531 -93.8033 975.099 -43.6488 953.61 5.74648C933.998 50.8792 912.671 95.3584 881.212 135.486C856.126 167.476 813.645 198.166 757.903 187.67C717.906 180.141 687.612 156.047 665.107 128.976C658.804 121.375 653.032 113.614 647.816 105.728C634.789 86.1257 623.61 66.1636 614.372 46.0076C603.801 22.8946 595.774 -0.841753 589.398 -24.4718C586.952 -33.5503 584.728 -42.6183 582.724 -51.6758C569.241 -112.553 564.538 -173.973 532.658 -234.348C502.358 -291.699 437.035 -349.91 358.404 -364.669C282.017 -379.091 219.817 -350.367 155.05 -333.21C135.583 -328.061 113.672 -323.898 90.5819 -329.361C55.2316 -337.716 30.8378 -364.775 11.143 -388.807" stroke="white" stroke-width="0.72" stroke-miterlimit="10"/>
<path d="M1502.98 -201.909C1376.72 -264.491 1211.84 -282.226 1114.35 -228.788C1073.45 -206.354 1046.46 -173.776 1024.8 -139.586C996.159 -94.3953 975.723 -45.4214 953.536 3.03504C933.271 47.3096 911.559 91.1101 880.024 130.687C854.898 162.236 812.961 192.245 758.16 183.007C718.246 176.286 687.518 153.879 664.034 127.887C657.404 120.57 651.281 113.073 645.694 105.432C631.613 86.2242 619.545 66.5422 609.615 46.5918C598.157 23.4955 589.641 -0.485758 582.839 -24.3315C580.225 -33.488 577.837 -42.6463 575.673 -51.8063C561.117 -113.287 555.47 -175.326 522.963 -236.32C492.931 -292.76 429.107 -350.054 352.243 -365.382C277.529 -380.315 216.374 -353.592 152.575 -337.863C133.396 -333.152 111.854 -329.375 89.1168 -334.869C54.3783 -343.258 30.1327 -369.66 10.4605 -393.06" stroke="white" stroke-width="0.7" stroke-miterlimit="10"/>
<path d="M1504.03 -198.076C1378.59 -259.579 1215.8 -277.121 1118.11 -225.476C1077.13 -203.798 1049.6 -172.21 1027.29 -138.945C997.805 -95.005 976.349 -47.2007 953.437 0.324286C932.544 43.7407 910.416 86.8441 878.828 125.877C853.647 156.989 812.248 186.339 758.34 178.319C718.485 172.44 687.436 151.642 662.893 126.817C655.967 119.79 649.519 112.565 643.58 105.18C628.469 86.3836 615.546 66.9775 604.979 47.2167C592.677 24.1519 583.669 -0.0671027 576.389 -24.1542C573.604 -33.4009 571.057 -42.6445 568.751 -51.885C553.125 -113.977 546.401 -176.678 513.388 -238.251C483.623 -293.781 421.3 -350.156 346.203 -366.021C273.172 -381.494 213.05 -356.769 150.233 -342.479C131.343 -338.205 110.167 -334.808 87.8621 -340.314C53.7108 -348.737 29.6624 -374.482 9.91163 -397.276" stroke="white" stroke-width="0.68" stroke-miterlimit="10"/>
<path d="M1505.09 -194.232C1380.46 -254.628 1219.71 -272.016 1121.89 -222.164C1080.84 -201.257 1052.77 -170.646 1029.81 -138.312C999.462 -95.6116 976.997 -48.9732 953.365 -2.36132C931.809 40.1933 909.262 82.6069 877.618 121.104C852.394 151.782 811.47 180.477 758.617 173.703C718.809 168.596 687.396 149.493 661.861 125.75C654.641 119.014 647.872 112.064 641.586 104.935C625.376 86.5742 611.519 67.4415 600.242 47.8487C587.064 24.8043 577.51 0.32948 569.84 -23.9698C566.889 -33.3043 564.179 -42.6381 561.709 -51.9712C545.021 -114.663 537.262 -178.005 503.702 -240.179C474.207 -294.806 413.392 -350.251 340.039 -366.653C268.706 -382.678 209.624 -359.972 147.781 -347.091C129.187 -343.245 108.366 -340.23 86.4497 -345.763C52.9101 -354.221 29.0352 -379.275 9.28191 -401.47" stroke="white" stroke-width="0.67" stroke-miterlimit="10"/>
<path d="M1506.15 -190.41C1382.37 -249.706 1223.64 -266.944 1125.65 -218.855C1084.54 -198.694 1055.93 -169.084 1032.27 -137.704C1001.07 -96.2325 977.588 -50.7636 953.243 -5.11256C931.034 36.5839 908.091 78.3152 876.387 116.25C851.091 146.436 810.731 174.571 758.83 168.986C719.098 164.708 687.28 147.245 660.745 124.607C653.215 118.16 646.114 111.481 639.475 104.602C622.196 86.6993 607.437 67.8376 595.496 48.3966C581.456 25.3689 571.397 0.660201 563.292 -23.8658C560.178 -33.293 557.303 -42.7146 554.667 -52.1307C536.909 -115.434 528.153 -179.42 494.019 -242.188C464.804 -295.908 405.476 -350.43 333.879 -367.373C264.24 -383.935 206.186 -363.212 145.33 -351.784C127.001 -348.375 106.504 -345.762 85.0502 -351.321C52.1249 -359.822 28.4233 -384.185 8.65141 -405.77" stroke="white" stroke-width="0.65" stroke-miterlimit="10"/>
<path d="M1507.2 -186.556C1384.22 -244.777 1227.56 -261.83 1129.42 -215.54C1088.23 -196.125 1059.08 -167.495 1034.83 -137.058C1002.76 -96.8072 978.269 -52.5262 953.199 -7.80668C930.343 33.05 907.003 74.0658 875.235 111.453C849.926 141.258 810.028 168.741 759.109 164.329C719.411 160.893 687.232 145.05 659.661 123.513C651.822 117.385 644.401 110.993 637.438 104.374C619.072 86.9584 603.4 68.3614 590.814 49.0457C575.919 26.0128 565.339 1.08118 556.809 -23.6606C553.519 -33.1682 550.48 -42.669 547.691 -52.163C528.861 -116.07 519.083 -180.7 484.388 -244.065C455.465 -296.875 397.613 -350.479 327.783 -367.959C259.827 -385.061 202.808 -366.342 142.933 -356.347C124.914 -353.368 104.816 -351.123 83.6857 -356.698C51.356 -365.222 27.849 -388.921 8.0584 -409.896" stroke="white" stroke-width="0.63" stroke-miterlimit="10"/>
<path d="M1508.26 -182.718C1386.09 -239.832 1231.49 -256.765 1133.19 -212.231C1091.93 -193.561 1062.26 -165.951 1037.36 -136.431C1004.42 -97.4423 978.914 -54.2904 953.135 -10.5134C929.621 29.4668 905.879 69.8149 874.013 106.644C848.647 135.986 809.228 162.906 759.327 159.638C719.65 157.046 687.12 142.829 658.614 122.418C650.443 116.57 642.675 110.43 635.356 104.034C615.933 87.1232 599.347 68.7909 586.096 49.5868C570.327 26.6074 559.254 1.40509 550.278 -23.5671C546.831 -33.16 543.634 -42.7572 540.688 -52.3587C520.788 -116.876 510.013 -182.151 474.743 -246.11C446.129 -297.987 389.761 -350.662 321.7 -368.686C255.438 -386.324 199.454 -369.611 140.56 -361.046C122.838 -358.495 103.097 -356.64 82.364 -362.23C50.6351 -370.792 27.3092 -393.824 7.50001 -414.189" stroke="white" stroke-width="0.62" stroke-miterlimit="10"/>
<path d="M1509.31 -178.877C1387.96 -234.906 1235.41 -251.671 1136.95 -208.926C1095.62 -191.002 1065.4 -164.386 1039.85 -135.804C1006.02 -98.0702 979.543 -56.077 953.036 -13.2241C928.882 25.8943 904.733 65.5563 872.85 101.846C847.435 130.768 808.484 157.122 759.59 154.994C719.921 153.284 687.055 140.647 657.547 121.348C649.058 115.811 640.953 109.953 633.281 103.812C612.819 87.4247 595.314 69.3553 581.387 50.2451C564.752 27.2897 553.133 1.83153 543.767 -23.3528C540.155 -33.0335 536.798 -42.7197 533.695 -52.4114C512.723 -117.533 500.937 -183.448 465.085 -248.012C436.769 -299.001 381.864 -350.753 315.538 -369.324C250.958 -387.503 196.018 -372.784 138.05 -365.669C120.616 -363.555 101.296 -362.062 80.8994 -367.704C49.7796 -376.293 26.6322 -398.649 6.8153 -418.401" stroke="white" stroke-width="0.6" stroke-miterlimit="10"/>
<path d="M1510.37 -175.042C1389.83 -229.97 1239.33 -246.581 1140.71 -205.611C1099.32 -188.432 1068.55 -162.803 1042.32 -135.198C1007.67 -98.6776 980.133 -57.8612 952.906 -15.9544C928.111 22.3095 903.562 61.2634 871.587 97.013C846.129 125.502 807.655 151.3 759.77 150.304C720.116 149.422 686.861 138.413 656.408 120.237C647.603 114.993 639.168 109.393 631.159 103.474C609.666 87.6425 591.227 69.839 576.613 50.8066C559.113 27.8753 547.027 2.17945 537.191 -23.2352C533.405 -33.0012 529.883 -42.7752 526.624 -52.5571C504.59 -118.278 491.81 -184.845 455.329 -250.021C427.319 -300.103 373.875 -350.933 309.314 -370.034C246.431 -388.757 192.523 -376.068 135.581 -370.345C118.434 -368.662 99.4352 -367.595 79.4717 -373.216C48.9527 -381.844 25.9948 -403.52 6.15924 -422.662" stroke="white" stroke-width="0.58" stroke-miterlimit="10"/>
<path d="M1511.39 -171.208C1391.68 -225.04 1243.24 -241.499 1144.46 -202.309C1102.95 -185.851 1071.72 -161.264 1044.87 -134.546C1009.36 -99.273 980.8 -59.6188 952.873 -18.6435C927.414 18.7586 902.464 57.0449 870.451 92.2398C844.952 120.288 806.927 145.611 760.067 145.664C720.407 145.707 686.851 136.249 655.387 119.174C646.276 114.242 637.517 108.915 629.176 103.233C606.676 87.9645 587.309 70.4122 572.014 51.4275C553.627 28.5131 541.049 2.57956 530.79 -23.0913C526.837 -32.9402 523.15 -42.8019 519.729 -52.6766C496.584 -118.998 482.807 -186.175 445.794 -251.964C418.092 -301.147 366.12 -351.043 303.304 -370.688C242.114 -389.948 189.233 -379.242 133.291 -374.968C116.421 -373.727 97.7808 -373.017 78.2137 -378.687C48.3038 -387.342 25.5271 -408.35 5.67029 -426.874" stroke="white" stroke-width="0.57" stroke-miterlimit="10"/>
<path d="M1512.49 -167.353C1393.58 -220.095 1247.2 -236.393 1148.25 -198.993C1106.71 -183.302 1074.88 -159.695 1047.38 -133.931C1011.01 -99.89 981.444 -61.4164 952.744 -21.3724C926.645 15.1678 901.288 52.7681 869.224 87.412C843.663 115.045 806.118 139.871 760.272 140.976C720.62 141.934 686.712 134.035 654.269 118.071C619.297 100.874 589.251 78.0638 567.237 51.9978C547.985 29.1075 534.894 2.929 524.19 -22.9392C520.08 -32.8734 516.236 -42.8229 512.658 -52.7878C488.471 -119.727 473.734 -187.586 436.11 -253.932C408.727 -302.211 358.203 -351.182 297.154 -371.364C237.652 -391.179 185.802 -382.463 130.84 -379.62C114.267 -378.806 95.984 -378.487 76.814 -384.172C47.5048 -392.865 24.9066 -413.198 5.02081 -431.083" stroke="white" stroke-width="0.55" stroke-miterlimit="10"/>
<path d="M1513.58 -163.505C1395.45 -215.158 1251.09 -231.311 1152.01 -195.677C1110.42 -180.776 1078.05 -158.13 1049.89 -133.301C1012.66 -100.515 982.075 -63.1777 952.745 -24.058C925.95 11.6095 900.196 48.5273 868.065 82.5983C842.468 109.776 805.381 134.171 760.545 136.335C720.885 138.219 686.631 131.863 653.207 117.02C643.471 112.699 634.037 107.91 624.986 102.692C600.529 88.614 579.268 71.5701 562.545 52.6371C542.44 29.7746 528.838 3.34384 517.697 -22.7437C513.419 -32.7829 509.412 -42.8251 505.676 -52.8704C480.475 -120.41 464.706 -188.917 426.529 -255.849C399.476 -303.222 350.39 -351.27 291.152 -371.974C233.342 -392.319 182.526 -385.607 128.555 -384.226C112.271 -383.849 94.3509 -383.902 75.5722 -389.622C46.8336 -398.37 24.4551 -418.006 4.57195 -435.306" stroke="white" stroke-width="0.53" stroke-miterlimit="10"/>
<path d="M1514.58 -159.672C1397.31 -210.225 1255.05 -226.213 1155.78 -192.368C1114.08 -178.176 1081.21 -156.569 1052.4 -132.679C1014.3 -101.11 982.709 -64.9463 952.613 -26.78C925.223 8.04022 899.053 44.261 866.893 77.8214C841.245 104.555 804.616 128.552 760.807 131.658C721.165 134.5 686.56 129.663 652.166 115.909C642.117 111.902 632.345 107.381 622.939 102.389C597.538 88.933 575.312 72.1475 557.837 53.2216C536.858 30.3721 522.751 3.70743 511.187 -22.6032C506.738 -32.7106 502.55 -42.843 498.624 -53.0005C472.316 -121.148 455.612 -190.302 416.79 -257.835C390.066 -304.301 342.429 -351.423 284.882 -372.691C228.765 -393.572 178.985 -388.865 125.987 -388.893C109.988 -388.947 92.4368 -389.386 74.0442 -395.125C45.9449 -403.883 23.7173 -422.868 3.8155 -439.559" stroke="white" stroke-width="0.52" stroke-miterlimit="10"/>
<path d="M1515.65 -155.843C1399.19 -205.303 1258.97 -221.12 1159.55 -189.06C1117.79 -175.609 1084.36 -155 1054.91 -132.045C1015.96 -101.717 983.346 -66.7223 952.538 -29.4912C924.495 4.47093 897.919 40.0057 865.669 73.0189C839.977 99.319 803.83 122.885 761.036 127.002C721.396 130.815 686.435 127.477 651.066 114.828C640.706 111.142 630.593 106.894 620.828 102.129C594.518 89.3048 571.339 72.7724 553.118 53.8353C531.274 31.0099 516.665 4.10404 504.655 -22.437C500.078 -32.62 495.745 -42.8255 491.656 -53.0537C464.278 -121.812 446.604 -191.618 407.156 -259.737C380.778 -305.308 334.576 -351.5 278.796 -373.304C224.36 -394.718 175.637 -391.943 123.599 -393.483C107.86 -393.96 90.7039 -394.794 72.7052 -400.574C45.2041 -409.363 23.166 -427.669 3.24563 -443.75" stroke="white" stroke-width="0.5" stroke-miterlimit="10"/>
<path d="M1516.69 -152.002C1401.06 -200.351 1262.85 -216.048 1163.31 -185.744C1121.49 -173.047 1087.52 -153.439 1057.44 -131.46C1017.62 -102.371 983.996 -68.535 952.466 -32.2427C923.767 0.868615 896.764 35.7026 864.543 68.1831C838.799 94.0387 803.154 117.221 761.333 122.295C721.711 127.1 686.381 125.266 650.043 113.699C639.386 110.327 628.943 106.346 618.827 101.8C591.629 89.6191 567.483 73.3439 548.483 54.3865C525.774 31.5852 510.653 4.42698 498.216 -22.3225C493.435 -32.6004 488.94 -42.9036 484.732 -53.232C456.281 -122.594 437.659 -193.044 397.588 -261.757C371.553 -306.425 326.775 -351.691 272.749 -374.028C220.011 -395.994 172.322 -395.215 121.264 -398.187C105.857 -399.088 88.9794 -400.33 71.4299 -406.1C44.5406 -414.923 22.6726 -432.565 2.73099 -448.028" stroke="white" stroke-width="0.48" stroke-miterlimit="10"/>
<path d="M1517.76 -148.166C1402.94 -195.414 1266.83 -210.962 1167.08 -182.435C1125.19 -170.476 1090.68 -151.878 1059.93 -130.794C1019.26 -102.944 984.619 -70.2744 952.365 -34.9135C923.027 -2.66406 895.619 31.4765 863.279 63.3915C837.514 88.8541 802.349 111.646 761.511 117.647C721.924 123.465 686.188 123.065 648.902 112.628C637.946 109.577 627.167 105.866 616.691 101.54C588.632 90.0176 563.514 74.0011 543.724 55.0112C520.139 32.2303 504.516 4.83085 491.646 -22.1527C486.701 -32.5185 482.041 -42.9094 477.668 -53.3255C448.147 -123.298 428.561 -194.382 387.871 -263.703C362.18 -307.468 318.837 -351.804 266.589 -374.675C215.546 -397.177 168.889 -398.396 118.812 -402.8C103.69 -404.131 87.2247 -405.745 70.0066 -411.552C43.7509 -420.403 22.0421 -437.383 2.08444 -452.245" stroke="white" stroke-width="0.47" stroke-miterlimit="10"/>
<path d="M1518.81 -144.299C1404.81 -190.477 1270.74 -205.845 1170.85 -179.126C1128.88 -167.917 1093.84 -150.309 1062.44 -130.171C1020.9 -103.554 985.255 -72.0829 952.29 -37.6241C922.289 -6.23645 894.517 27.2327 862.082 58.5821C836.252 83.5709 801.622 106.057 761.746 112.978C722.222 119.835 686.11 120.888 647.815 111.544C636.565 108.806 625.451 105.364 614.612 101.259C585.711 90.3964 559.613 74.6391 538.999 55.6071C514.549 32.8503 498.413 5.20592 485.12 -22.0007C480.013 -32.4641 475.193 -42.944 470.661 -53.4406C440.031 -124.02 419.543 -195.741 378.219 -265.66C352.907 -308.518 310.95 -351.925 260.439 -375.351C211.024 -398.379 165.446 -401.621 116.327 -407.463C101.492 -409.224 85.3846 -411.195 68.5654 -417.059C42.886 -425.948 21.386 -442.235 1.42067 -456.482" stroke="white" stroke-width="0.45" stroke-miterlimit="10"/>
<path d="M1519.87 -140.488C1406.7 -185.569 1274.68 -200.781 1174.61 -175.781C1132.56 -165.309 1096.99 -148.747 1064.94 -129.504C1022.54 -104.127 985.869 -73.7927 952.189 -40.2948C921.549 -9.76898 893.37 23.0141 860.881 53.8199C834.999 78.3643 800.908 100.537 761.979 108.348C722.49 116.253 685.996 118.739 646.718 110.489C635.176 108.07 623.727 104.895 612.523 101.007C582.809 90.8088 555.729 75.3145 534.276 56.2356C508.96 33.503 492.324 5.60994 478.584 -21.8198C473.309 -32.339 468.327 -42.9056 463.64 -53.5193C431.987 -124.703 410.529 -197.108 368.547 -267.558C343.569 -309.558 303.046 -351.994 254.291 -375.961C206.635 -399.536 162.027 -404.772 113.919 -412.027C99.3721 -414.227 83.6298 -416.61 67.2084 -422.457C42.1297 -431.383 20.778 -447.013 0.824221 -460.632" stroke="white" stroke-width="0.43" stroke-miterlimit="10"/>
<path d="M1520.93 -136.645C1408.56 -180.637 1278.59 -195.666 1178.38 -172.503C1136.28 -162.784 1100.15 -147.18 1067.46 -128.934C1024.21 -104.793 986.521 -75.6136 952.121 -43.0619C920.883 -13.3759 892.255 18.6992 859.702 48.9577C833.768 73.0577 800.232 94.9384 762.231 103.626C722.861 112.621 685.911 116.508 645.663 109.348C633.831 107.243 622.045 104.345 610.467 100.691C581.712 91.5016 552.939 77.0398 529.577 56.7897C503.389 34.1033 486.269 5.95053 472.081 -21.7022C466.641 -32.3313 461.495 -42.9881 456.645 -53.6725C423.933 -125.463 401.545 -198.532 358.921 -269.59C334.287 -310.653 295.198 -352.193 248.2 -376.7C202.229 -400.824 158.653 -408.057 111.529 -416.751C97.268 -419.38 81.8915 -422.143 65.8613 -428.024C41.386 -436.996 20.2515 -451.921 0.246204 -464.941" stroke="white" stroke-width="0.42" stroke-miterlimit="10"/>
<path d="M1521.98 -132.812C1410.43 -175.707 1282.52 -190.573 1182.15 -169.187C1139.97 -160.232 1103.31 -145.618 1069.97 -128.29C1025.85 -105.389 987.152 -77.375 952.041 -45.7584C920.1 -16.9635 891.115 14.4584 858.497 44.1697C832.522 67.8289 799.559 89.4401 762.46 98.9703C723.217 109.068 685.795 114.333 644.573 108.27C632.451 106.498 620.327 103.878 608.375 100.446C578.738 91.8171 548.99 77.6552 524.85 57.4254C497.805 34.741 480.142 6.39114 465.552 -21.5105C459.945 -32.2225 454.64 -42.9682 449.636 -53.7478C415.851 -126.142 392.542 -199.862 349.246 -271.514C324.982 -311.682 287.301 -352.284 242.056 -377.325C197.782 -401.992 155.23 -411.234 109.097 -421.356C95.1221 -424.416 80.1142 -427.566 64.4701 -433.465C40.6013 -442.457 19.653 -456.728 -0.373433 -469.132" stroke="white" stroke-width="0.4" stroke-miterlimit="10"/>
<path d="M1523.02 -128.931C1412.3 -170.734 1286.44 -185.446 1185.91 -165.842C1143.65 -157.618 1106.46 -144.021 1072.46 -127.631C1027.49 -105.962 987.777 -79.1144 951.941 -48.4293C919.356 -20.4816 889.968 10.2397 857.288 39.3964C831.283 62.5854 798.877 83.8976 762.696 94.3331C723.585 105.551 685.696 112.18 643.479 107.207C631.074 105.75 618.616 103.393 606.294 100.172C575.761 92.107 545.05 78.2486 520.146 58.0353C492.227 35.364 474.07 6.75082 459.035 -21.3481C453.258 -32.1552 447.787 -42.9888 442.624 -53.8488C407.769 -126.854 383.553 -201.23 339.592 -273.464C315.699 -312.737 279.415 -352.406 235.927 -377.986C193.39 -403.176 151.83 -414.437 106.667 -425.961C92.994 -429.463 78.3408 -432.995 63.0855 -438.922C39.8258 -447.941 19.056 -461.536 -0.975538 -473.333" stroke="white" stroke-width="0.38" stroke-miterlimit="10"/>
<path d="M1524.1 -125.13C1414.17 -165.796 1290.38 -180.388 1189.68 -162.562C1147.36 -155.084 1109.62 -142.481 1074.99 -127.027C1029.14 -106.601 988.423 -80.919 951.865 -51.1726C918.638 -24.0794 888.834 5.94477 856.101 34.5578C830.028 57.3466 798.296 78.4147 762.938 89.6418C723.995 101.983 685.602 109.973 642.415 106.09C629.723 104.951 616.925 102.864 604.225 99.8618C572.798 92.3536 541.113 78.7952 515.431 58.6021C486.68 35.9658 467.979 7.08941 452.508 -21.2289C446.547 -32.1189 440.913 -43.0316 435.605 -53.9672C399.678 -127.543 374.567 -202.611 329.918 -275.428C306.395 -313.805 271.519 -352.536 229.787 -378.658C188.889 -404.403 148.397 -417.657 104.233 -430.631C90.8465 -434.564 76.5618 -438.483 61.7035 -444.425C39.0337 -453.486 18.4534 -466.402 -1.59686 -477.589" stroke="white" stroke-width="0.37" stroke-miterlimit="10"/>
<path d="M1525.14 -121.291C1415.99 -160.878 1294.3 -175.302 1193.45 -159.254C1151.05 -152.525 1112.78 -140.935 1077.5 -126.398C1030.8 -107.208 989.057 -82.6883 951.785 -53.8697C917.9 -27.653 887.735 1.69242 854.905 29.7473C828.791 52.0953 797.696 72.9157 763.186 84.9674C724.439 98.4914 685.5 107.794 641.331 104.997C628.361 104.18 615.231 102.365 602.157 99.5832C569.848 92.6356 537.186 79.3844 510.729 59.2042C481.08 36.581 461.909 7.4743 445.96 -21.0854C439.856 -32.0558 434.064 -43.065 428.583 -54.1128C391.586 -128.333 365.605 -204.06 320.255 -277.423C297.102 -314.904 263.624 -352.702 223.648 -379.364C184.444 -405.645 145.008 -420.964 101.804 -435.31C88.6591 -439.688 74.7841 -443.972 60.317 -449.948C38.2589 -459.043 17.8597 -471.291 -2.21174 -481.861" stroke="white" stroke-width="0.35" stroke-miterlimit="10"/>
<path d="M1526.21 -117.454C1417.91 -155.927 1298.23 -170.209 1197.22 -155.946C1154.74 -149.966 1115.95 -139.363 1080.01 -125.783C1032.45 -107.833 989.697 -84.4721 951.683 -56.6069C917.151 -31.23 886.546 -2.58159 853.692 24.9479C827.524 46.8589 797.089 67.439 763.392 80.3117C724.879 95.0144 685.393 105.697 640.215 103.927C626.99 103.44 613.545 101.902 600.114 99.3378C566.879 92.9362 533.287 79.9995 506.064 59.8027C475.551 37.2037 455.811 7.83375 439.537 -20.9162C433.262 -31.9768 427.305 -43.0762 421.669 -54.2143C383.61 -129.035 356.741 -205.402 310.696 -279.366C287.917 -315.959 255.833 -352.816 217.602 -380.022C180.081 -406.844 141.69 -424.197 99.4674 -439.942C86.6493 -444.761 73.0911 -449.424 59.0102 -455.419C37.5612 -464.542 17.3405 -476.114 -2.74957 -486.074" stroke="white" stroke-width="0.33" stroke-miterlimit="10"/>
<path d="M1527.26 -113.613C1419.78 -150.989 1302.15 -165.115 1200.99 -152.636C1158.45 -147.392 1119.08 -137.761 1082.52 -125.16C1033.76 -108.188 989.764 -86.0559 951.619 -59.3138C916.434 -34.795 885.447 -6.83268 852.52 20.1386C826.311 41.6088 796.568 61.9594 763.667 75.6312C725.396 91.5236 685.347 103.497 639.171 102.824C625.646 102.655 611.844 101.381 598.01 99.0239C563.915 93.19 529.313 80.5496 501.302 60.4025C469.923 37.8276 449.739 8.2273 432.973 -20.7603C426.522 -31.9013 420.401 -43.0885 414.61 -54.3217C375.489 -129.742 347.756 -206.784 300.996 -281.322C278.6 -317.023 247.867 -352.955 211.447 -380.683C175.62 -408.042 138.254 -427.369 97.022 -444.575C84.4924 -449.832 71.2783 -454.882 57.6054 -460.889C36.7571 -470.05 16.7285 -480.951 -3.36928 -490.297" stroke="white" stroke-width="0.32" stroke-miterlimit="10"/>
<path d="M1528.32 -109.777C1421.66 -146.053 1306.08 -160.029 1204.76 -149.343C1162.58 -144.76 1122.42 -136.431 1085.06 -124.52C1035.47 -108.87 990.575 -87.8468 951.575 -62.0069C915.74 -38.3536 884.334 -11.081 851.356 15.3393C825.093 36.3724 796.067 56.4936 763.935 70.9717C725.961 88.0722 685.26 101.307 638.098 101.735C624.291 101.889 610.146 100.892 595.923 98.7641C560.948 93.4834 525.372 81.1429 496.616 61.027C464.372 38.4761 443.675 8.63089 426.475 -20.5834C419.875 -31.8123 413.597 -43.0872 407.641 -54.4083C367.437 -130.436 338.861 -208.144 291.372 -283.254C269.35 -318.067 240.044 -353.046 205.345 -381.319C171.214 -409.222 134.881 -430.547 94.6097 -449.199C82.3874 -454.912 69.5422 -460.315 56.247 -466.353C36.0021 -475.559 16.1468 -485.77 -3.96961 -494.506" stroke="white" stroke-width="0.3" stroke-miterlimit="10"/>
<path d="M1529.36 -105.937C1423.53 -141.123 1310 -154.935 1208.52 -146.012C1166.12 -142.211 1125.55 -134.798 1087.54 -123.909C1037.13 -109.576 991.341 -89.6629 951.467 -64.7291C914.99 -41.9303 883.177 -15.3437 850.137 10.522C823.83 31.1217 795.521 51.0134 764.147 66.2943C726.503 84.6137 685.143 99.1322 637.045 100.654C622.967 101.121 608.493 100.392 593.892 98.4822C558.035 93.7621 521.461 81.7547 491.929 61.6185C458.809 39.0881 437.601 9.02362 419.975 -20.4395C413.193 -31.7561 406.751 -43.1188 400.646 -54.5277C359.339 -131.177 329.926 -209.567 281.681 -285.241C260.075 -319.151 232.15 -353.186 199.2 -382.01C168.107 -409.365 131.937 -433.654 92.2286 -453.845C80.2819 -459.959 67.8128 -465.771 54.9063 -471.835C35.268 -481.061 15.5965 -490.611 -4.53855 -498.737" stroke="white" stroke-width="0.28" stroke-miterlimit="10"/>
<path d="M1530.43 -102.1C1425.41 -136.186 1313.93 -149.841 1212.29 -142.703C1169.67 -139.676 1128.69 -133.164 1090.05 -123.279C1038.83 -110.264 992.14 -91.465 951.368 -67.44C914.285 -45.4921 882.034 -19.6099 848.927 5.71591C822.58 25.8748 795.056 45.5516 764.415 61.6353C727.11 81.1847 685.076 96.9245 635.962 99.5616C621.593 100.347 606.766 99.8903 591.765 98.2009C555.015 94.0377 517.498 82.308 487.167 62.2178C453.182 39.7116 431.471 9.37281 413.389 -20.2913C406.449 -31.6884 399.845 -43.1377 393.577 -54.6392C351.244 -131.885 321.161 -211.015 272.003 -287.191C250.849 -320.227 224.273 -353.295 193.002 -382.686C162.25 -411.673 127.984 -437 89.6936 -458.5C78.038 -465.06 65.9349 -471.251 53.4171 -477.342C34.3879 -486.595 14.8974 -495.477 -5.25888 -502.986" stroke="white" stroke-width="0.27" stroke-miterlimit="10"/>
<path d="M1531.49 -98.2549C1325.4 -163.524 1098.94 -152.529 951.282 -70.1541C883.435 -32.2948 832.231 18.8868 764.649 56.9659C727.694 77.7489 684.942 94.7285 634.844 98.4591C584.746 102.19 526.29 91.061 482.458 62.8028C447.608 40.3206 425.395 9.74057 406.89 -20.1466C352.016 -108.814 319.562 -200.933 262.378 -289.155C205.194 -377.376 115.239 -465.798 -5.78122 -507.209" stroke="white" stroke-width="0.25" stroke-miterlimit="10"/>
</g>
</g>
<defs>
<filter id="filter0_d_544_10961" x="-9.82324" y="-507.327" width="1545.35" height="715.659" filterUnits="userSpaceOnUse" color-interpolation-filters="sRGB">
<feFlood flood-opacity="0" result="BackgroundImageFix"/>
<feColorMatrix in="SourceAlpha" type="matrix" values="0 0 0 0 0 0 0 0 0 0 0 0 0 0 0 0 0 0 127 0" result="hardAlpha"/>
<feOffset dy="4"/>
<feGaussianBlur stdDeviation="2"/>
<feComposite in2="hardAlpha" operator="out"/>
<feColorMatrix type="matrix" values="0 0 0 0 0 0 0 0 0 0 0 0 0 0 0 0 0 0 0.25 0"/>
<feBlend mode="normal" in2="BackgroundImageFix" result="effect1_dropShadow_544_10961"/>
<feBlend mode="normal" in="SourceGraphic" in2="effect1_dropShadow_544_10961" result="shape"/>
</filter>
</defs>
</svg>
